<?xml version="1.0" encoding="UTF-8" standalone="no"?>
<svg
   version="1.1"
   id="Layer_1"
   x="0px"
   y="0px"
   viewBox="0 0 122.88 107.41"
   style="enable-background:new 0 0 122.88 107.41"
   xml:space="preserve"
   sodipodi:docname="heart-icon.svg"
   inkscape:version="1.3 (0e150ed6c4, 2023-07-21)"
   xmlns:inkscape="http://www.inkscape.org/namespaces/inkscape"
   xmlns:sodipodi="http://sodipodi.sourceforge.net/DTD/sodipodi-0.dtd"
   xmlns="http://www.w3.org/2000/svg"
   xmlns:svg="http://www.w3.org/2000/svg"><defs
     id="defs1" /><sodipodi:namedview
     id="namedview1"
     pagecolor="#ffffff"
     bordercolor="#000000"
     borderopacity="0.25"
     inkscape:showpageshadow="2"
     inkscape:pageopacity="0.0"
     inkscape:pagecheckerboard="0"
     inkscape:deskcolor="#d1d1d1"
     inkscape:zoom="5.3521813"
     inkscape:cx="44.84153"
     inkscape:cy="41.571835"
     inkscape:window-width="1920"
     inkscape:window-height="1009"
     inkscape:window-x="-8"
     inkscape:window-y="-8"
     inkscape:window-maximized="1"
     inkscape:current-layer="Layer_1" /><style
     type="text/css"
     id="style1">.st0{fill-rule:evenodd;clip-rule:evenodd;}</style><g
     id="g1"><path
       class="st0"
       d="M60.83,17.19C68.84,8.84,74.45,1.62,86.79,0.21c23.17-2.66,44.48,21.06,32.78,44.41 c-3.33,6.65-10.11,14.56-17.61,22.32c-8.23,8.52-17.34,16.87-23.72,23.2l-17.4,17.26L46.46,93.56C29.16,76.9,0.95,55.93,0.02,29.95 C-0.63,11.75,13.73,0.09,30.25,0.3C45.01,0.5,51.22,7.84,60.83,17.19L60.83,17.19L60.83,17.19z"
       id="path1" /></g><g
     id="g2"
     style="fill:#ff0000"
     transform="matrix(0.9655952,0,0,0.94095101,2.1138072,3.5856987)"><path
       class="st0"
       d="M 60.83,17.19 C 68.84,8.84 74.45,1.62 86.79,0.21 c 23.17,-2.66 44.48,21.06 32.78,44.41 -3.33,6.65 -10.11,14.56 -17.61,22.32 -8.23,8.52 -17.34,16.87 -23.72,23.2 L 60.84,107.4 46.46,93.56 C 29.16,76.9 0.95,55.93 0.02,29.95 -0.63,11.75 13.73,0.09 30.25,0.3 45.01,0.5 51.22,7.84 60.83,17.19 Z"
       id="path2"
       style="fill:#ff0000" /></g></svg>
