<?xml version="1.0" encoding="UTF-8" standalone="no"?>
<!-- Uploaded to: SVG Repo, www.svgrepo.com, Generator: SVG Repo Mixer Tools -->

<svg
   width="16"
   height="16"
   viewBox="0 0 0.48 0.48"
   fill="none"
   version="1.1"
   id="svg2"
   sodipodi:docname="estado-da-maquina.svg"
   inkscape:version="1.3.2 (091e20ef0f, 2023-11-25)"
   xmlns:inkscape="http://www.inkscape.org/namespaces/inkscape"
   xmlns:sodipodi="http://sodipodi.sourceforge.net/DTD/sodipodi-0.dtd"
   xmlns="http://www.w3.org/2000/svg"
   xmlns:svg="http://www.w3.org/2000/svg">
  <defs
     id="defs2" />
  <sodipodi:namedview
     id="namedview2"
     pagecolor="#505050"
     bordercolor="#ffffff"
     borderopacity="1"
     inkscape:showpageshadow="0"
     inkscape:pageopacity="0"
     inkscape:pagecheckerboard="1"
     inkscape:deskcolor="#505050"
     inkscape:zoom="11.92182"
     inkscape:cx="17.36312"
     inkscape:cy="20.760253"
     inkscape:window-width="1920"
     inkscape:window-height="1052"
     inkscape:window-x="0"
     inkscape:window-y="0"
     inkscape:window-maximized="1"
     inkscape:current-layer="svg2" />
  <path
     d="m 0.2398647,0.320386 c -0.015904,0 -0.031451,-0.00471 -0.044674,-0.013544 -0.013224,-0.00883 -0.023531,-0.021381 -0.029617,-0.036066 -0.00609,-0.014685 -0.00768,-0.030844 -0.00458,-0.046434 0.0031,-0.01559 0.010761,-0.029908 0.022007,-0.041149 0.011247,-0.011239 0.025573,-0.018894 0.041172,-0.021994 0.015599,-0.0031 0.031767,-0.00151 0.04646,0.00457 0.014694,0.00608 0.027252,0.016383 0.036086,0.0296 0.00884,0.013215 0.013552,0.028753 0.013552,0.044648 0,0.021315 -0.00847,0.041757 -0.023553,0.056826 -0.015078,0.015072 -0.035532,0.023539 -0.056859,0.023539 z m 0,-0.1195886 c -0.00776,0 -0.015349,0.0023 -0.021804,0.00661 -0.00645,0.00431 -0.011483,0.010437 -0.014452,0.017604 -0.00297,0.00717 -0.00375,0.015053 -0.00223,0.022661 0.00151,0.00761 0.00525,0.014598 0.010739,0.020083 0.00549,0.00549 0.012482,0.00922 0.020095,0.010733 0.00761,0.00151 0.015503,7.378e-4 0.022674,-0.00223 0.00717,-0.00297 0.013302,-0.008 0.017614,-0.014447 0.00431,-0.00645 0.00661,-0.014035 0.00661,-0.021792 0,-0.010404 -0.00414,-0.020379 -0.011494,-0.027736 -0.00736,-0.00735 -0.017342,-0.011487 -0.027752,-0.011487 z"
     fill="#000000"
     id="path1"
     style="stroke-width:0.0274364" />
  <path
     d="m 0.2415114,0.4800203 c -0.00802,-3.57e-5 -0.015962,-0.00166 -0.023358,-0.00477 -0.0074,-0.00311 -0.014106,-0.00765 -0.019741,-0.013358 -0.00564,-0.00571 -0.010088,-0.012475 -0.013099,-0.019908 -0.00301,-0.00743 -0.00453,-0.015387 -0.00445,-0.023408 -1.084e-4,-0.00247 -9.125e-4,-0.00487 -0.00232,-0.0069 -0.00141,-0.00204 -0.00336,-0.00364 -0.00564,-0.00462 -0.00252,-0.00115 -0.00532,-0.00154 -0.00806,-0.0011 -0.00274,4.388e-4 -0.00528,0.00168 -0.00731,0.00357 -0.011395,0.0113 -0.02676,0.0177 -0.042813,0.017828 -0.016154,1.043e-4 -0.031711,-0.0061 -0.043362,-0.01728 -0.00566,-0.00566 -0.010149,-0.012367 -0.013212,-0.019757 -0.00306,-0.00739 -0.00464,-0.015308 -0.00464,-0.023306 0,-0.008 0.00158,-0.015917 0.00464,-0.023306 0.00306,-0.00739 0.00755,-0.014101 0.013212,-0.019757 0.00194,-0.00176 0.00333,-0.00404 0.00401,-0.00657 6.806e-4,-0.00253 6.238e-4,-0.0052 -1.644e-4,-0.00769 -0.00134,-0.00232 -0.00326,-0.00424 -0.00557,-0.00559 -0.00231,-0.00135 -0.00493,-0.00207 -0.00761,-0.00209 -0.016148,-6.31e-5 -0.03164,-0.00639 -0.04321,-0.017648 C 0.007243,0.2731033 4.98e-4,0.2577953 0,0.2416653 c 3.6e-5,-0.008 0.00165,-0.015909 0.00474,-0.023281 0.0031,-0.00737 0.00761,-0.014065 0.013296,-0.019696 0.00568,-0.00563 0.01242,-0.010083 0.019826,-0.013108 0.00741,-0.00303 0.015335,-0.00457 0.023336,-0.00453 0.00248,-1.084e-4 0.00487,-9.12e-4 0.00691,-0.00232 0.00204,-0.00141 0.00364,-0.00336 0.00462,-0.00564 0.00116,-0.00252 0.00154,-0.00532 0.0011,-0.00806 -4.396e-4,-0.00273 -0.00168,-0.00528 -0.00357,-0.00731 -0.011308,-0.011388 -0.017711,-0.026745 -0.017839,-0.042789 -1.403e-4,-0.00801 0.00132,-0.015966 0.00428,-0.023406 0.00297,-0.00744 0.00739,-0.014216 0.013005,-0.019931 0.00566,-0.00566 0.012375,-0.010143 0.019768,-0.013204 0.00739,-0.00306 0.015317,-0.00464 0.023319,-0.00464 0.008,0 0.015926,0.00158 0.023319,0.00464 0.00739,0.00306 0.01411,0.00755 0.019768,0.013204 0.00198,0.00188 0.0044,0.00322 0.00705,0.00389 0.00264,6.722e-4 0.00541,6.547e-4 0.00805,-5.13e-5 0.0024,-0.00131 0.00444,-0.00321 0.00592,-0.00551 0.00149,-0.0023 0.00237,-0.00493 0.00258,-0.00766 C 0.1794703,0.046077 0.185768,0.030525 0.197039,0.018902 0.208319,0.007279 0.223676,5e-4 0.239863,0 c 0.008,7.16e-5 0.01591,0.00172 0.023276,0.00484 0.00736,0.00313 0.014041,0.00767 0.019647,0.013377 0.0056,0.00571 0.010034,0.012458 0.013028,0.019874 0.00299,0.00742 0.0045,0.015348 0.00443,0.023344 1.043e-4,0.00251 8.7e-4,0.00495 0.00222,0.00707 0.00135,0.00212 0.00323,0.00384 0.00546,0.005 0.00242,8.889e-4 0.00505,0.00108 0.00757,5.436e-4 0.00252,-5.338e-4 0.00485,-0.00177 0.0067,-0.00356 0.011395,-0.011302 0.026761,-0.0177 0.042813,-0.017828 0.00803,-2.516e-4 0.016022,0.00115 0.023481,0.00413 0.00746,0.00297 0.01423,0.00745 0.019881,0.013154 0.00566,0.00565 0.010149,0.012368 0.013212,0.019757 0.00306,0.00739 0.00464,0.015308 0.00464,0.023306 0,0.008 -0.00158,0.015917 -0.00464,0.023306 -0.00306,0.00739 -0.00755,0.014102 -0.013212,0.019757 -0.00174,0.00205 -0.00293,0.00452 -0.00346,0.00715 -5.269e-4,0.00264 -3.787e-4,0.00537 4.364e-4,0.00793 0.00131,0.0024 0.00321,0.00443 0.00551,0.00592 0.0023,0.00148 0.00493,0.00237 0.00767,0.00258 0.016052,2.044e-4 0.031407,0.00659 0.04286,0.017837 0.011452,0.011243 0.018121,0.026469 0.018615,0.042506 -7.14e-5,0.008 -0.00172,0.0159 -0.00485,0.023259 -0.00313,0.00736 -0.00768,0.014035 -0.013384,0.019636 -0.00571,0.0056 -0.012465,0.010031 -0.019886,0.013023 -0.00742,0.00299 -0.015358,0.0045 -0.023358,0.00442 -0.00251,1.042e-4 -0.00495,8.694e-4 -0.00707,0.00222 -0.00212,0.00135 -0.00385,0.00323 -0.00501,0.00546 -8.892e-4,0.00242 -0.00108,0.00504 -5.434e-4,0.00756 5.324e-4,0.00252 0.00177,0.00484 0.00356,0.0067 0.01131,0.011388 0.01771,0.026746 0.017839,0.042789 1.4e-4,0.00801 -0.00132,0.015966 -0.00428,0.023405 -0.00297,0.00744 -0.00739,0.014216 -0.013006,0.019932 -0.00566,0.00566 -0.012375,0.010143 -0.019768,0.013204 -0.00739,0.00306 -0.015317,0.00464 -0.023319,0.00464 -0.008,0 -0.015926,-0.00157 -0.023319,-0.00464 -0.00739,-0.00306 -0.014109,-0.00755 -0.019768,-0.013204 -0.00186,-0.00179 -0.00418,-0.00303 -0.0067,-0.00356 -0.00252,-5.349e-4 -0.00515,-3.456e-4 -0.00757,5.431e-4 -0.00232,0.00134 -0.00424,0.00325 -0.00559,0.00556 -0.00135,0.00231 -0.00207,0.00493 -0.00209,0.0076 -2.031e-4,0.016043 -0.0066,0.031389 -0.017847,0.042835 -0.011249,0.011446 -0.026484,0.018111 -0.04253,0.018605 z M 0.1671374,0.364546 c 0.00728,-8.5e-5 0.01449,0.00141 0.021132,0.00439 0.0098,0.00408 0.018209,0.010922 0.0242,0.019686 0.00599,0.00876 0.00931,0.019074 0.00956,0.029686 -7.69e-5,0.00529 0.00192,0.010401 0.00556,0.014244 0.00364,0.00384 0.00864,0.00611 0.013928,0.00633 0.00529,-4.169e-4 0.01022,-0.00284 0.013791,-0.00676 0.00357,-0.00393 0.00551,-0.00906 0.00542,-0.014362 6.59e-5,-0.010648 0.00314,-0.021062 0.00887,-0.03004 0.00573,-0.00898 0.013881,-0.016155 0.023514,-0.020703 0.010023,-0.00417 0.021055,-0.00527 0.031704,-0.00317 0.010648,0.0021 0.020438,0.00731 0.028125,0.014965 0.00364,0.00364 0.00858,0.00568 0.013722,0.00568 0.00515,0 0.010083,-0.00204 0.013722,-0.00568 0.00364,-0.00364 0.00568,-0.00857 0.00568,-0.013714 0,-0.00514 -0.00204,-0.010077 -0.00568,-0.013714 -0.00762,-0.00771 -0.012775,-0.01751 -0.014825,-0.028153 -0.00205,-0.010642 -9.029e-4,-0.021652 0.0033,-0.031642 0.00433,-0.00962 0.011343,-0.017798 0.020204,-0.023539 0.00886,-0.00574 0.019186,-0.0088 0.029744,-0.00883 0.00522,7.68e-5 0.010267,-0.00189 0.01406,-0.00547 0.00379,-0.00359 0.00604,-0.00851 0.00625,-0.013725 -3.512e-4,-0.00531 -0.00275,-0.010278 -0.00669,-0.01386 -0.00394,-0.00358 -0.00912,-0.00549 -0.014441,-0.00534 -0.010742,-2.907e-4 -0.02119,-0.00358 -0.030161,-0.00949 -0.00897,-0.00591 -0.01611,-0.014216 -0.020611,-0.02397 -0.00411,-0.010117 -0.00518,-0.021211 -0.00308,-0.031926 0.00209,-0.010715 0.00727,-0.020589 0.014883,-0.028417 0.0018,-0.0018 0.00323,-0.00394 0.00421,-0.00629 9.743e-4,-0.00235 0.00148,-0.00488 0.00148,-0.00742 0,-0.00255 -5.022e-4,-0.00507 -0.00148,-0.00742 -9.743e-4,-0.00235 -0.0024,-0.00449 -0.00421,-0.00629 -0.0018,-0.0018 -0.00394,-0.00323 -0.0063,-0.0042 -0.00235,-9.748e-4 -0.00488,-0.00148 -0.00743,-0.00148 -0.00255,0 -0.00507,5.017e-4 -0.00743,0.00148 -0.00235,9.745e-4 -0.00449,0.0024 -0.0063,0.0042 -0.00771,0.00716 -0.017331,0.011955 -0.027697,0.013807 -0.010361,0.00185 -0.021042,6.838e-4 -0.030763,-0.00336 -0.00972,-0.00405 -0.018072,-0.010805 -0.024055,-0.019465 -0.00598,-0.00866 -0.00935,-0.018858 -0.00969,-0.029377 7.68e-5,-0.00522 -0.00189,-0.01026 -0.00548,-0.014051 -0.00359,-0.00379 -0.00852,-0.00603 -0.013733,-0.00625 -0.00531,3.527e-4 -0.010283,0.00275 -0.013868,0.00669 -0.00358,0.00394 -0.0055,0.00911 -0.00534,0.014432 -2.909e-4,0.010737 -0.00358,0.021178 -0.0095,0.030145 -0.00592,0.00897 -0.014224,0.016101 -0.023983,0.020598 -0.010123,0.00411 -0.021223,0.00518 -0.031944,0.00308 -0.010722,-0.00209 -0.020601,-0.00726 -0.028433,-0.014875 -0.0018,-0.0018 -0.00394,-0.00323 -0.0063,-0.0042 -0.00235,-9.748e-4 -0.00488,-0.00148 -0.00743,-0.00148 -0.00255,0 -0.00507,5.017e-4 -0.00743,0.00148 -0.00235,9.745e-4 -0.00449,0.0024 -0.0063,0.0042 -0.0018,0.0018 -0.00323,0.00394 -0.00421,0.00629 -9.753e-4,0.00235 -0.00148,0.00488 -0.00148,0.00742 0,0.00255 5.02e-4,0.00507 0.00148,0.00742 9.751e-4,0.00235 0.0024,0.00449 0.00421,0.00629 0.00757,0.00774 0.012678,0.017555 0.01468,0.028195 0.002,0.01064 8.096e-4,0.021635 -0.00343,0.031599 -0.00409,0.0098 -0.010928,0.018199 -0.019696,0.024187 -0.00877,0.00599 -0.019087,0.00931 -0.029704,0.00955 -0.00529,-7.68e-5 -0.010408,0.00192 -0.014253,0.00555 -0.00384,0.00364 -0.00612,0.00863 -0.00633,0.01392 4.182e-4,0.00529 0.00284,0.010214 0.00676,0.013783 0.00393,0.00357 0.00906,0.0055 0.01437,0.00542 0.010655,6.59e-5 0.021074,0.00314 0.030057,0.00886 0.00898,0.00573 0.016164,0.013873 0.020715,0.023501 0.00417,0.010017 0.00527,0.021043 0.00317,0.031686 -0.0021,0.010642 -0.00731,0.020426 -0.014974,0.028109 -0.0018,0.0018 -0.00323,0.00394 -0.00421,0.00629 -9.754e-4,0.00235 -0.00148,0.00487 -0.00148,0.00742 0,0.00255 5.02e-4,0.00507 0.00148,0.00742 9.75e-4,0.00235 0.0024,0.00449 0.00421,0.00629 0.0018,0.0018 0.00394,0.00323 0.0063,0.0042 0.00235,9.737e-4 0.00488,0.00148 0.00743,0.00148 0.00255,0 0.00507,-5.02e-4 0.00743,-0.00148 0.00235,-9.765e-4 0.00449,-0.0024 0.0063,-0.0042 0.010431,-0.00995 0.024274,-0.015547 0.038696,-0.015634 z"
     fill="#000000"
     id="path2"
     style="stroke-width:0.0274364" />
</svg>
