<?xml version="1.0" encoding="UTF-8" standalone="no"?>
<!-- Uploaded to: SVG Repo, www.svgrepo.com, Generator: SVG Repo Mixer Tools -->

<svg
   fill="#000000"
   width="16"
   height="16"
   viewBox="0 -3.19 1.0826 1.0826"
   id="Layer_1"
   data-name="Layer 1"
   version="1.1"
   sodipodi:docname="maquina.svg"
   inkscape:version="1.3.2 (091e20ef0f, 2023-11-25)"
   xmlns:inkscape="http://www.inkscape.org/namespaces/inkscape"
   xmlns:sodipodi="http://sodipodi.sourceforge.net/DTD/sodipodi-0.dtd"
   xmlns="http://www.w3.org/2000/svg"
   xmlns:svg="http://www.w3.org/2000/svg"
   xmlns:rdf="http://www.w3.org/1999/02/22-rdf-syntax-ns#"
   xmlns:cc="http://creativecommons.org/ns#"
   xmlns:dc="http://purl.org/dc/elements/1.1/">
  <defs
     id="defs3" />
  <sodipodi:namedview
     id="namedview3"
     pagecolor="#505050"
     bordercolor="#ffffff"
     borderopacity="1"
     inkscape:showpageshadow="0"
     inkscape:pageopacity="0"
     inkscape:pagecheckerboard="1"
     inkscape:deskcolor="#505050"
     inkscape:zoom="16.86"
     inkscape:cx="10.854093"
     inkscape:cy="14.679715"
     inkscape:window-width="1920"
     inkscape:window-height="1052"
     inkscape:window-x="0"
     inkscape:window-y="0"
     inkscape:window-maximized="1"
     inkscape:current-layer="Layer_1" />
  <title
     id="title1">cogs</title>
  <path
     d="m 1.0162368,-2.4629029 -0.0082,-0.019989 c 0.027985,-0.063365 0.026185,-0.065364 0.019989,-0.070761 l -0.0357801,-0.034981 -0.003598,-0.003 h -0.004198 c -0.002199,0 -0.008795,0 -0.063165,0.024586 l -0.0199889,-0.008 C 0.8753102,-2.6392052 0.8727116,-2.6392052 0.8651159,-2.6392052 H 0.8153435 c -0.007596,0 -0.0103942,0 -0.0345808,0.064364 l -0.0199889,0.008 a 0.34720757,0.34720757 0 0 0 -0.0641644,-0.023387 h -0.004797 l -0.0385786,0.037779 c -0.005797,0.0056 -0.007796,0.0074 0.0217879,0.069761 l -0.008195,0.019989 c -0.0657636,0.025586 -0.0657636,0.027985 -0.0657636,0.03578 v 0.049573 c 0,0.0078 0,0.010394 0.0657636,0.033981 l 0.008195,0.019989 c -0.0279845,0.063365 -0.0261855,0.065164 -0.0199889,0.070761 l 0.0359801,0.034981 0.003398,0.003 h 0.004198 c 0.002199,0 0.008595,0 0.063165,-0.024786 l 0.0199889,0.00819 c 0.0259856,0.064164 0.0285842,0.064164 0.03618,0.064164 h 0.050572 c 0.007596,0 0.0103942,0 0.0345808,-0.064364 l 0.0199889,-0.0082 a 0.33981167,0.33981167 0 0 0 0.0639646,0.023587 h 0.004797 l 0.0389784,-0.037979 c 0.0054,-0.0056 0.0074,-0.0076 -0.022188,-0.069761 l 0.0082,-0.019989 C 1.0826,-2.3691548 1.0826,-2.3719533 1.0826,-2.3795491 v -0.049373 c -3.998e-4,-0.0078 -3.998e-4,-0.010594 -0.066363,-0.033981 z m -0.17530286,0.1421213 a 0.08235436,0.08235436 0 1 1 0.0839535,-0.082354 0.08315391,0.08315391 0 0 1 -0.0839535,0.082354 z"
     id="path1"
     style="stroke-width:0.0199889" />
  <path
     d="m 0.54110011,-2.7491442 -0.0105941,-0.025386 c 0.0365797,-0.082754 0.0341811,-0.085153 0.026985,-0.092349 l -0.0467741,-0.045775 -0.004597,-0.0038 h -0.004997 c -0.002798,0 -0.0113937,0 -0.0825542,0.032182 l -0.0261855,-0.010594 c -0.0337813,-0.083754 -0.0371794,-0.083754 -0.0471739,-0.083754 h -0.0659634 c -0.009795,0 -0.0135925,0 -0.0449751,0.084153 l -0.0261855,0.010594 a 0.42976182,0.42976182 0 0 0 -0.0837536,-0.030583 h -0.006197 l -0.0501722,0.049573 c -0.0075958,0.0072 -0.01019435,0.00979 0.02838427,0.091349 l -0.01059431,0.025186 C 0,-2.7151631 0,-2.7119648 0,-2.7019704 v 0.064764 c 0,0.010194 0,0.013792 0.08595236,0.044575 l 0.01079402,0.025186 c -0.03657973,0.082554 -0.03418106,0.085153 -0.02718493,0.092149 l 0.04677407,0.045775 0.004997,0.0044 h 0.005397 c 0.002798,0 0.0111938,0 0.0823544,-0.032182 l 0.0261855,0.010594 c 0.0337813,0.083754 0.0371794,0.083754 0.0471738,0.083754 h 0.0659635 c 0.0101943,0 0.0137924,0 0.045175,-0.084153 l 0.0261855,-0.010594 a 0.42976182,0.42976182 0 0 0 0.0837536,0.030583 h 0.006197 l 0.0513715,-0.050372 c 0.007196,-0.0072 0.009595,-0.00979 -0.028784,-0.09095 l 0.0105941,-0.025186 c 0.0857525,-0.033182 0.0857525,-0.03658 0.0857525,-0.046574 v -0.064764 c -7.9956e-4,-0.00999 -7.9956e-4,-0.013593 -0.0875518,-0.044176 z m -0.22707415,0.185697 a 0.10774029,0.10774029 0 1 1 0.10953929,-0.1077402 0.10913951,0.10913951 0 0 1 -0.10953929,0.1077402 z"
     id="path2"
     style="stroke-width:0.0199889" />
  <path
     d="m 0.98085639,-2.9724205 -0.006996,-0.016591 c 0.0239867,-0.05417 0.0223876,-0.055769 0.0177901,-0.059967 l -0.0307829,-0.030183 -0.002998,-0.0026 h -0.003598 a 0.19809021,0.19809021 0 0 0 -0.0533709,0.020988 l -0.0171905,-0.0068 c -0.0219878,-0.054764 -0.0243864,-0.054764 -0.0307829,-0.054764 h -0.0425764 c -0.006596,0 -0.008995,0 -0.0295836,0.054969 l -0.0169906,0.0068 a 0.28264335,0.28264335 0 0 0 -0.0547697,-0.019989 h -0.003998 l -0.0327816,0.032382 c -0.004997,0.0048 -0.006796,0.0064 0.0183898,0.059967 l -0.006796,0.016591 c -0.055969,0.021588 -0.055969,0.023587 -0.055969,0.030183 v 0.042376 c 0,0.0066 0,0.009 0.055969,0.028984 l 0.006996,0.016391 c -0.0237868,0.05417 -0.0221877,0.055769 -0.0175903,0.059967 l 0.0305831,0.029784 0.002998,0.0028 h 0.003598 a 0.19988922,0.19988922 0 0 0 0.0537702,-0.021188 l 0.0169906,0.007 c 0.0221877,0.05457 0.0243865,0.05457 0.0309828,0.05457 h 0.0429762 c 0.006596,0 0.008995,0 0.0295836,-0.05477 l 0.0169906,-0.007 a 0.29763504,0.29763504 0 0 0 0.0545697,0.019989 h 0.004597 l 0.0331816,-0.032382 c 0.004597,-0.0046 0.006197,-0.0064 -0.0187896,-0.059967 l 0.005597,-0.015991 c 0.055969,-0.021788 0.055969,-0.023987 0.055969,-0.030383 v -0.042177 c 7.995e-4,-0.0068 7.995e-4,-0.009 -0.0559683,-0.028983 z m -0.14871758,0.1211329 a 0.070361,0.070361 0 1 1 0.0715603,-0.070161 0.07116056,0.07116056 0 0 1 -0.0709607,0.070161 z"
     id="path3"
     style="stroke-width:0.0199889" />
  <metadata
     id="metadata3">
    <rdf:RDF>
      <cc:Work
         rdf:about="">
        <dc:title>cogs</dc:title>
      </cc:Work>
    </rdf:RDF>
  </metadata>
</svg>
