<?xml version="1.0" encoding="UTF-8" standalone="no"?>
<svg
   width="16"
   height="16"
   version="1.1"
   id="svg1"
   sodipodi:docname="TimedLabel.svg"
   inkscape:version="1.3 (0e150ed6c4, 2023-07-21)"
   xmlns:inkscape="http://www.inkscape.org/namespaces/inkscape"
   xmlns:sodipodi="http://sodipodi.sourceforge.net/DTD/sodipodi-0.dtd"
   xmlns="http://www.w3.org/2000/svg"
   xmlns:svg="http://www.w3.org/2000/svg">
  <defs
     id="defs1" />
  <sodipodi:namedview
     id="namedview1"
     pagecolor="#505050"
     bordercolor="#eeeeee"
     borderopacity="1"
     inkscape:showpageshadow="0"
     inkscape:pageopacity="0"
     inkscape:pagecheckerboard="0"
     inkscape:deskcolor="#505050"
     inkscape:zoom="35.929863"
     inkscape:cx="9.8525284"
     inkscape:cy="10.631824"
     inkscape:window-width="1920"
     inkscape:window-height="1009"
     inkscape:window-x="1912"
     inkscape:window-y="-8"
     inkscape:window-maximized="1"
     inkscape:current-layer="svg1" />
  <path
     style="fill:#8eef97;fill-opacity:1;stroke:none;stroke-width:0.371909;stroke-opacity:1"
     d="m 4.9859361,14.850287 c -0.2709906,-0.06573 -0.1667337,0.03 -2.4531076,-2.252571 C 0.44008539,10.508452 0.41023447,10.477568 0.33349108,10.322263 0.22739721,10.107562 0.19949938,9.9249252 0.24140727,9.7194228 0.30786609,9.3935311 0.16146996,9.5559439 2.4934201,7.2210247 3.9842907,5.7282559 4.6404497,5.0841032 4.7181247,5.0370273 4.9118801,4.9195991 5.0214756,4.9027833 5.6013894,4.9015035 l 0.5140584,-0.00113 -0.034907,0.1722017 c -0.068144,0.336164 -0.0874,0.5463676 -0.086985,0.9495695 2.281e-4,0.2218942 0.011953,0.4875769 0.026055,0.5904059 0.1865226,1.3600492 0.882806,2.5551435 1.960678,3.3652901 0.6913494,0.5196303 1.5038398,0.8463053 2.3722962,0.9538223 0.282138,0.03493 0.857482,0.03974 1.136505,0.0095 0.930736,-0.100866 1.851467,-0.477579 2.572411,-1.0524908 l 0.137761,-0.1098568 0.005,2.0782116 c 0.0055,2.291326 0.0079,2.239934 -0.116024,2.485018 -0.0779,0.154026 -0.25265,0.332381 -0.405489,0.413843 -0.243484,0.129776 0.04958,0.121905 -4.4822667,0.120381 -3.2189461,-0.0011 -4.1352047,-0.0067 -4.2145559,-0.02598 z M 4.4182042,10.873169 C 4.7867983,10.795639 5.0754527,10.525387 5.1838548,10.15633 5.2243999,10.018293 5.2242371,9.7594273 5.183519,9.6222681 5.068516,9.2348794 4.7664108,8.9607266 4.3812422,8.8942221 3.7691289,8.7885327 3.2078721,9.2645068 3.2078721,9.8892989 c 0,0.4798431 0.3242653,0.8819621 0.7934498,0.9839511 0.1605111,0.03489 0.2507007,0.03487 0.4168823,-8.1e-5 z"
     id="path5" />
  <path
     style="fill:#8eef97;fill-opacity:1;stroke:#8eef97;stroke-width:0.678154;stroke-opacity:1"
     d="M 10.441528,10.024273 C 9.5540878,9.9134221 8.6320175,9.4371441 7.9895425,8.7577434 7.2884115,8.0163169 6.9186099,7.1326084 6.880156,6.1066622 6.8597579,5.5624431 6.8969146,5.243925 7.0374821,4.7580186 7.4642558,3.2827693 8.7725463,2.1293791 10.313119,1.8702141 l 0.271951,-0.045749 0.01103,-0.15026 0.01103,-0.1502602 h -0.183273 c -0.100801,0 -0.230645,-0.024496 -0.288542,-0.054436 -0.113404,-0.058644 -0.2141392,-0.2187302 -0.2141392,-0.3403063 0,-0.1215761 0.1007352,-0.28166267 0.2141392,-0.34030617 0.08423,-0.043553 0.254491,-0.054409 0.851677,-0.054302 0.666945,1.198e-4 0.758175,0.00731 0.856926,0.067527 0.215473,0.1313953 0.249971,0.44406907 0.06787,0.61514397 -0.06762,0.06353 -0.142447,0.088047 -0.304479,0.099766 l -0.214822,0.015539 v 0.1492503 0.1492499 l 0.287048,0.045167 c 0.828176,0.1303127 1.628402,0.5588372 2.257041,1.2086542 0.781253,0.8075719 1.152133,1.7259703 1.152133,2.8529874 0,0.5383966 -0.06321,0.9134006 -0.234962,1.3939395 -0.216559,0.6059044 -0.546924,1.1081793 -1.04401,1.5872725 -0.893488,0.8611499 -2.114489,1.2617848 -3.368219,1.1051818 z m 0.154,-1.0800862 c 0.0096,-0.253383 0.01955,-0.2855402 0.119389,-0.3853815 0.08674,-0.086741 0.139637,-0.1089309 0.25967,-0.1089309 0.282373,0 0.41791,0.1868651 0.41791,0.5761721 v 0.2196206 l 0.152514,-0.02496 c 0.295667,-0.048403 0.80185,-0.233175 1.096649,-0.4003149 0.575723,-0.3264151 1.141537,-0.9619495 1.401788,-1.5745219 0.09912,-0.2333022 0.184428,-0.5248419 0.233104,-0.796614 l 0.02089,-0.1166282 h -0.252084 c -0.305274,0 -0.432154,-0.058129 -0.516958,-0.2368386 C 13.47537,5.9840234 13.47213,5.9416636 13.50758,5.8233501 13.56877,5.619104 13.712107,5.5434467 14.038175,5.543278 L 14.297449,5.54314 14.277069,5.4265116 C 14.146813,4.6810586 13.830526,4.0745807 13.306457,3.5653831 12.858872,3.130498 12.373084,2.8534158 11.802261,2.7074238 11.385346,2.600795 11.392497,2.598257 11.392497,2.8528661 c 0,0.1190565 -0.02295,0.2713951 -0.051,0.3385302 -0.08608,0.2060391 -0.344528,0.2915947 -0.553849,0.1833504 -0.13683,-0.070758 -0.184634,-0.197322 -0.184634,-0.4888362 0,-0.2368004 -0.0042,-0.2495109 -0.08296,-0.2495109 -0.159233,0 -0.6549492,0.1499408 -0.9460052,0.2861406 C 8.8868678,3.244109 8.3493827,3.7697236 8.005735,4.456221 7.8650408,4.7372828 7.6962757,5.2735156 7.6962757,5.4394946 c 0,0.1018158 0.00351,0.1036424 0.1991531,0.1036424 0.3330696,0 0.5009585,0.143854 0.4930607,0.4224748 -0.00291,0.1025878 -0.032092,0.1576601 -0.1321322,0.2493396 -0.1153331,0.1056951 -0.1503653,0.1176698 -0.3442407,0.1176698 -0.2140416,0 -0.2158409,8.642e-4 -0.2158409,0.1036424 0,0.1659945 0.1687717,0.7022272 0.3094714,0.9832736 0.4450269,0.8889369 1.2971967,1.5564942 2.2563529,1.767539 0.325299,0.071579 0.321425,0.074396 0.333428,-0.2428894 z"
     id="path2" />
  <path
     style="fill:#8eef97;fill-opacity:1;stroke:#8eef97;stroke-width:0.678154;stroke-opacity:1"
     d="M 10.728613,6.5159953 C 10.469973,6.3966251 10.351814,6.2084177 10.351814,5.915818 c 0,-0.3291409 0.285338,-0.6238806 0.603981,-0.6238806 0.07628,0 0.188507,-0.092527 0.526977,-0.4344345 0.505891,-0.5110287 0.672094,-0.6421349 0.814032,-0.6421349 0.205726,0 0.377757,0.1491641 0.393177,0.3409137 0.01647,0.2048653 -0.01532,0.2513563 -0.525942,0.7691323 -0.286189,0.2901958 -0.520433,0.550754 -0.520543,0.5790183 -5.33e-4,0.136951 -0.08877,0.3393549 -0.203092,0.4659033 -0.192506,0.213081 -0.451066,0.2659922 -0.711791,0.1456597 z"
     id="path3" />
</svg>
