<?xml version="1.0" encoding="UTF-8" standalone="no"?>
<!-- Created with Inkscape (http://www.inkscape.org/) -->

<svg
   width="16"
   height="16"
   viewBox="0 0 4.2333331 4.2333333"
   version="1.1"
   id="svg1"
   inkscape:version="1.3 (0e150ed6c4, 2023-07-21)"
   sodipodi:docname="Lane3D.svg"
   inkscape:export-filename="Base2D.png"
   inkscape:export-xdpi="96"
   inkscape:export-ydpi="96"
   xmlns:inkscape="http://www.inkscape.org/namespaces/inkscape"
   xmlns:sodipodi="http://sodipodi.sourceforge.net/DTD/sodipodi-0.dtd"
   xmlns="http://www.w3.org/2000/svg"
   xmlns:svg="http://www.w3.org/2000/svg">
  <sodipodi:namedview
     id="namedview1"
     pagecolor="#505050"
     bordercolor="#eeeeee"
     borderopacity="1"
     inkscape:showpageshadow="0"
     inkscape:pageopacity="0"
     inkscape:pagecheckerboard="0"
     inkscape:deskcolor="#505050"
     inkscape:document-units="px"
     inkscape:zoom="33.58273"
     inkscape:cx="4.7643536"
     inkscape:cy="10.228472"
     inkscape:window-width="1920"
     inkscape:window-height="1009"
     inkscape:window-x="-8"
     inkscape:window-y="-8"
     inkscape:window-maximized="1"
     inkscape:current-layer="g9" />
  <defs
     id="defs1" />
  <g
     inkscape:label="Camada 1"
     inkscape:groupmode="layer"
     id="layer1"
     transform="translate(-31.201158,-116.91017)">
    <g
       id="g4"
       transform="translate(-0.26740696,1.0696279)" />
    <g
       id="g6"
       transform="rotate(-90,116.18433,156.3172)" />
    <g
       id="g10"
       transform="matrix(0.56376851,0,0,0.56376851,14.30131,63.147709)">
      <g
         id="g9">
        <path
           id="path1"
           style="fill:#fa9b9b;fill-opacity:1;stroke:none;stroke-width:0.0672766;stroke-linecap:square"
           d="m 31.291753,99.346787 c -0.07924,0.0213 -0.156813,0.04836 -0.232135,0.0809 -0.05606,0.0217 -0.108421,0.04909 -0.157113,0.08098 -0.6768,0.378954 -1.010817,1.168343 -0.811562,1.917983 0.242743,0.90593 1.173935,1.44355 2.079863,1.20081 0.48876,-0.13102 0.893634,-0.47318 1.104309,-0.93326 l 1.473763,-0.39489 c 0.411713,0.29255 0.93229,0.38666 1.420369,0.25677 0.90593,-0.24274 1.443553,-1.17393 1.200807,-2.079863 -0.179819,-0.665099 -0.743669,-1.155639 -1.42725,-1.241688 -0.140021,-0.03872 -0.291811,-0.04251 -0.442844,-0.002 l -0.03321,0.0089 c -0.05941,0.0083 -0.118346,0.01957 -0.176557,0.03402 -0.05764,0.01658 -0.114357,0.03621 -0.169916,0.05881 L 31.46831,99.3128 c -0.05941,0.0083 -0.118347,0.01957 -0.176557,0.03402 z m 4.192984,-0.498388 a 0.33329511,0.33329511 0 0 1 0.408179,0.235693 0.33329511,0.33329511 0 0 1 -0.235656,0.408169 0.33329511,0.33329511 0 0 1 -0.408207,-0.235645 0.33329511,0.33329511 0 0 1 0.235684,-0.408217 z m -4.096655,1.634851 0.13164,-0.0353 c 0.104819,-0.0281 0.211792,0.0337 0.239879,0.1385 l 0.06613,0.24681 0.246807,-0.0661 c 0.104819,-0.0281 0.211792,0.0337 0.239878,0.13849 l 0.03528,0.13164 c 0.02808,0.10482 -0.03368,0.21179 -0.138494,0.23988 l -0.246807,0.0661 0.06613,0.24682 c 0.02809,0.10482 -0.03368,0.21179 -0.138493,0.23987 l -0.131641,0.0353 c -0.104818,0.028 -0.211792,-0.0336 -0.239878,-0.1385 l -0.06613,-0.24681 -0.246807,0.0661 c -0.104819,0.0281 -0.211792,-0.0336 -0.239878,-0.13848 l -0.03528,-0.13166 c -0.02809,-0.10481 0.03368,-0.21179 0.138493,-0.23987 l 0.246807,-0.0661 -0.06613,-0.24681 c -0.02808,-0.10482 0.03368,-0.21179 0.138494,-0.23988 z m 3.576829,-0.734489 a 0.33329511,0.33329511 0 0 1 0.408208,0.235645 0.33329511,0.33329511 0 0 1 -0.235684,0.408214 0.33329511,0.33329511 0 0 1 -0.408216,-0.23568 0.33329511,0.33329511 0 0 1 0.235692,-0.408179 z M 36.3851,99.368224 a 0.33329511,0.33329511 0 0 1 0.408168,0.235654 0.33329511,0.33329511 0 0 1 -0.235646,0.408202 0.33329511,0.33329511 0 0 1 -0.408215,-0.235678 0.33329511,0.33329511 0 0 1 0.235693,-0.408178 z m -0.519823,0.900366 a 0.33329511,0.33329511 0 0 1 0.408167,0.23565 0.33329511,0.33329511 0 0 1 -0.235646,0.40821 0.33329511,0.33329511 0 0 1 -0.408216,-0.23568 0.33329511,0.33329511 0 0 1 0.235695,-0.40818 z" />
        <rect
           style="fill:#fa9b9b;fill-opacity:1;stroke-width:0.469312"
           id="rect1"
           width="0.68476534"
           height="2.7949603"
           x="30.311968"
           y="95.572273"
           ry="0.34238267" />
        <rect
           style="fill:#fa9b9b;fill-opacity:1;stroke-width:0.469312"
           id="rect2"
           width="0.68476534"
           height="2.7949603"
           x="32.079781"
           y="95.572273"
           ry="0.34238267" />
        <rect
           style="fill:#fa9b9b;fill-opacity:1;stroke-width:0.469312"
           id="rect3"
           width="0.68476534"
           height="2.7949603"
           x="33.847591"
           y="95.572273"
           ry="0.34238267" />
      </g>
    </g>
  </g>
</svg>
